<svg viewBox="0 0 800 800" xmlns="http://www.w3.org/2000/svg"><path d="M530.0704893776641,13.935469103171954 L530.0574900265532,314.16514712152537 M-8.644668684784847,324.86257455345935 L530.0704893776641,13.935469103171954 M530.0574900265532,314.16514712152537 L-8.573848802946657,625.1406402478083 M-8.573848802946657,625.1406402478083 L-8.644668684784847,324.86257455345935 M530.0704893776641,13.935469103171954 L532.3694651939484,12.87732258251998 M532.3694651939484,12.87732258251998 L535.0187976842483,12.140966215237142 M535.0187976842483,12.140966215237142 L537.8856432427772,11.763320749261084 M537.8856432427772,11.763320749261084 L540.8262504227001,11.763321647643693 M540.8262504227001,11.763321647643693 L543.6931677431844,12.140968860476562 M543.6931677431844,12.140968860476562 L546.3426430514764,12.877323830276282 M546.3426430514764,12.877323830276282 L548.641818541838,13.935467905323208 M530.0574900265532,314.16514712152537 L532.3561082549097,313.10683587478115 M532.3561082549097,313.10683587478115 L535.0050286560862,312.37036487561124 M535.0050286560862,312.37036487561124 L537.8714282870601,311.9926606198096 M537.8714282870601,311.9926606198096 L540.8115780605433,311.992661518332 M540.8115780605433,311.992661518332 L543.6780494310016,312.3703675212625 M543.6780494310016,312.3703675212625 L546.3271126059047,313.10683712273175 M546.3271126059047,313.10683712273175 L548.6259304455933,314.1651459234902 M548.641818541838,13.935467905323208 L548.6259304455933,314.1651459234902 M-8.644668684784847,324.86257455345935 L-8.41240867102141,322.610288676857 M-8.41240867102141,322.610288676857 L-7.7261478580692255,320.7398343735392 M-7.7261478580692255,320.7398343735392 L-6.620295877350827,319.3450208953683 M-6.620295877350827,319.3450208953683 L-5.150302303913406,318.4957727732479 M-5.150302303913406,318.4957727732479 L-3.3898773370647746,318.23467187750896 M-3.3898773370647746,318.23467187750896 L-1.427295495401495,318.57482138493765 M-1.427295495401495,318.57482138493765 L0.639032053134656,319.4991802547143 M539.3571847880487,8.570348054235978 L537.2907820310643,7.646714809041896 M537.2907820310643,7.646714809041896 L535.3279786146988,7.307167837277348 M535.3279786146988,7.307167837277348 L533.5671968216666,7.5687179696857925 M533.5671968216666,7.5687179696857925 L532.0967290664154,8.418239505710517 M532.0967290664154,8.418239505710517 L530.9903093251971,9.81313686576982 M530.9903093251971,9.81313686576982 L530.303415638462,11.683481311397486 M530.303415638462,11.683481311397486 L530.0704893776641,13.935469103171954 M0.639032053134656,319.4991802547143 L539.3571847880487,8.570348054235978 M539.3417091985443,330.2458864360191 L537.2756761346805,328.78438267613654 M537.2756761346805,328.78438267613654 L535.3132722951473,326.8585862150428 M535.3132722951473,326.8585862150428 L533.5528972709398,324.56506284609134 M533.5528972709398,324.56506284609134 L532.0828216060463,322.01881710352507 M532.0828216060463,322.01881710352507 L530.9767596164647,319.34752592789806 M530.9767596164647,319.34752592789806 L530.2901728784059,316.68513611983127 M530.2901728784059,316.68513611983127 L530.0574900265532,314.16514712152537 M539.3417091985443,330.2458864360191 L0.7133627820404627,641.2265625736482 M0.7133627820404627,641.2265625736482 L-1.3527451822729972,639.7642465334227 M-1.3527451822729972,639.7642465334227 L-3.3153702488232284,637.8375919134037 M-3.3153702488232284,637.8375919134037 L-5.076101734037763,635.5432075370145 M-5.076101734037763,635.5432075370145 L-6.5466512205349545,632.9961411113572 M-6.5466512205349545,632.9961411113572 L-7.65328063392667,630.3241107277238 M-7.65328063392667,630.3241107277238 L-8.3404999459068,627.6611002519776 M-8.3404999459068,627.6611002519776 L-8.573848802946657,625.1406402478083 M-8.573848802946657,625.1406402478083 L-10.408225657802461,626.4685756080025 M-10.408225657802461,626.4685756080025 L-11.685051979672664,627.998870358397 M-11.685051979672664,627.998870358397 L-12.340286587536752,629.6547827318043 M-12.340286587536752,629.6547827318043 L-12.341109132010388,631.353301911674 M-12.341109132010388,631.353301911674 L-11.687437050931294,633.009234836788 M-11.687437050931294,633.009234836788 L-10.41203884026163,634.5395413373401 M-10.41203884026163,634.5395413373401 L-8.578897637033606,635.8675034107541 M-8.64971909183231,335.5877691766605 L-10.483145479308291,334.260013662786 M-10.483145479308291,334.260013662786 L-11.758742060126963,332.7299451963982 M-11.758742060126963,332.7299451963982 L-12.412515745910355,331.0742698470778 M-12.412515745910355,331.0742698470778 L-12.411692947744143,329.37601486809507 M-12.411692947744143,329.37601486809507 L-11.756356247472297,327.72036006907564 M-11.756356247472297,327.72036006907564 L-10.479331108714177,326.19030335424515 M-10.479331108714177,326.19030335424515 L-8.644668684784847,324.86257455345935 M-8.578897637033606,635.8675034107541 L-8.64971909183231,335.5877691766605 M539.3571847880487,8.570348054235978 L539.3571847880487,8.570348054235978 M539.3571847880487,8.570348054235978 L541.4233362103723,7.646712413336729 M541.4233362103723,7.646712413336729 L543.3858459017167,7.307165042293434 M543.3858459017167,7.307165042293434 L545.1463080735257,7.5687157736300605 M545.1463080735257,7.5687157736300605 L546.6164474980385,8.418238208042396 M546.6164474980385,8.418238208042396 L547.7225466707807,9.813136716038912 M547.7225466707807,9.813136716038912 L548.4091476749111,11.683480163460274 M548.4091476749111,11.683480163460274 L548.641818541838,13.935467905323208 M539.3417091985443,330.2458864360191 L539.3417091985443,330.2458864360191 M539.3417091985443,330.2458864360191 L541.4075427375138,328.7843802800324 M541.4075427375138,328.7843802800324 L543.3698055325337,326.85858341959573 M543.3698055325337,326.85858341959573 L545.1301068286623,324.5650606496747 M545.1301068286623,324.5650606496747 L546.6001809372608,322.01881580564594 M546.6001809372608,322.01881580564594 L547.7063136287902,319.34752577814317 M547.7063136287902,319.34752577814317 L548.3930438322545,316.68513497171244 M548.3930438322545,316.68513497171244 L548.6259304455933,314.1651459234902 M576.5009761067151,30.012989729530887 L548.641818541838,13.935467905323208 M808.6404026274705,464.26622543760794 L548.6259304455933,314.1651459234902 M576.5009761067151,30.012989729530887 L576.484364809149,276.6391310615771 M808.6404026274705,464.26622543760794 L808.6464390802465,432.10072634628705 M595.0536298005804,308.80204148594606 L590.9212595664212,305.87895250928267 M590.9212595664212,305.87895250928267 L586.9962014687345,302.02723213835446 M586.9962014687345,302.02723213835446 L583.4752644799639,297.4400107048937 M583.4752644799639,297.4400107048937 L580.5349894438128,292.3473049540538 M580.5349894438128,292.3473049540538 L578.3228076440367,287.0044733599238 M578.3228076440367,287.0044733599238 L576.9496490033822,281.6794131505332 M576.9496490033822,281.6794131505332 L576.484364809149,276.6391310615771 M808.6464390802465,432.10072634628705 L595.0536298005804,308.80204148594606 M-8.64971909183231,335.5877691766605 L-8.64971909183231,335.5877691766605 M-8.64971909183231,335.5877691766605 L-8.417329629973835,333.0665671616841 M-8.417329629973835,333.0665671616841 L-7.730702832617226,330.40288555111385 M-7.730702832617226,330.40288555111385 L-6.624236145676548,327.7302920590034 M-6.624236145676548,327.7302920590034 L-5.1534197739208025,325.18278895772545 M-5.1534197739208025,325.18278895772545 L-3.3920464987310766,322.88813792742945 M-3.3920464987310766,322.88813792742945 L-1.4284020835761453,320.9613895609058 M-1.4284020835761453,320.9613895609058 L0.639032053134656,319.4991802547143 M28.498342694541122,335.5871588031902 L0.639032053134656,319.4991802547143 M567.2164971766156,24.647959111239118 L539.3571847880487,8.570348054235978 M28.498342694541122,335.5871588031902 L567.2164971766156,24.647959111239118 M799.3547370080163,480.349467676901 L539.3417091985443,330.2458864360191 M0.7133627820404627,641.2265625736482 L260.7263859316799,791.4269272375873 M799.3547370080163,480.349467676901 L260.7263859316799,791.4269272375873 M0.7133627820404627,641.2265625736482 L0.7133627820404627,641.2265625736482 M0.7133627820404627,641.2265625736482 L-1.3538514018994192,642.1512118499702 M-1.3538514018994192,642.1512118499702 L-3.3175386919540415,642.4918285057331 M-3.3175386919540415,642.4918285057331 L-5.07921817769784,642.2313221348786 M-5.07921817769784,642.2313221348786 L-6.550590208516894,641.3827748893539 M-6.550590208516894,641.3827748893539 L-7.6578341480892504,639.9887117988376 M-7.6578341480892504,639.9887117988376 L-8.345419347809013,638.1190312981805 M-8.345419347809013,638.1190312981805 L-8.578897637033606,635.8675034107541 M-8.578897637033606,635.8675034107541 L251.43556972393174,786.0687037067894 M19.209436665634087,351.67601599198997 L-8.64971909183231,335.5877691766605 M251.43556972393174,786.0687037067894 L251.43231715823558,753.8978436851712 M19.264053050228426,598.3432783568571 L19.209436665634087,351.67601599198997 M37.83950986059648,630.5169133262159 L251.43231715823558,753.8978436851712 M37.83950986059648,630.5169133262159 L33.706984578201514,627.592143626797 M33.706984578201514,627.592143626797 L29.781468681558408,623.7386476010347 M29.781468681558408,623.7386476010347 L26.2597940943387,619.1496446133106 M26.2597940943387,619.1496446133106 L23.318538644119712,614.0552407354924 M23.318538644119712,614.0552407354924 L21.10518277231779,608.710879585236 M21.10518277231779,608.710879585236 L19.73071526894688,603.3845350829022 M19.73071526894688,603.3845350829022 L19.264053050228426,598.3432783568571 M567.2164971766156,24.647959111239118 L569.282644713233,23.724285956184985 M569.282644713233,23.724285956184985 L571.2451429510037,23.384707436806252 M571.2451429510037,23.384707436806252 L573.005586675913,23.646234947315406 M573.005586675913,23.646234947315406 L574.475701585365,24.495743252628756 M574.475701585365,24.495743252628756 L575.5817714041459,25.890637431702032 M575.5817714041459,25.890637431702032 L576.2683396871134,27.760986567439375 M576.2683396871134,27.760986567439375 L576.5009761067151,30.012989729530887 M808.6404026274705,464.26622543760794 L808.4071945321443,466.7864418575431 M808.4071945321443,466.7864418575431 L807.7201589880478,469.44913226612346 M807.7201589880478,469.44913226612346 L806.6137524077876,472.1207791026289 M806.6137524077876,472.1207791026289 L805.1434495958481,474.66742007218437 M805.1434495958481,474.66742007218437 L803.3829762494245,476.9613584216089 M803.3829762494245,476.9613584216089 L801.4206066839691,478.8875694776387 M801.4206066839691,478.8875694776387 L799.3547370080163,480.349467676901 M576.5009761067151,30.012989729530887 L578.3346304835839,31.339907210138108 M578.3346304835839,31.339907210138108 L579.6107481799507,32.86902990991092 M579.6107481799507,32.86902990991092 L580.2653398982551,34.5236781821402 M580.2653398982551,34.5236781821402 L580.2655780384076,36.220886474389545 M580.2655780384076,36.220886474389545 L579.6114446336919,37.87554784385668 M579.6114446336919,37.87554784385668 L578.3357355541541,39.4046896687928 M578.3357355541541,39.4046896687928 L576.5024180006844,40.73163618419369 M576.484364809149,276.6391310615771 L578.3177848625576,277.96621823011196 M578.3177848625576,277.96621823011196 L579.5937394722507,279.49553647549936 M579.5937394722507,279.49553647549936 L580.2482475187121,281.1503963449707 M580.2482475187121,281.1503963449707 L580.2484855983638,282.8478216763048 M580.2484855983638,282.8478216763048 L579.5944357487269,284.50269464321923 M579.5944357487269,284.50269464321923 L578.3188896510909,286.0320320135676 M578.3188896510909,286.0320320135676 L576.4858063343024,287.35914821730677 M576.5024180006844,40.73163618419369 L576.4858063343024,287.35914821730677 M808.6444158359658,474.9895140587675 L810.477383475987,473.66199225941955 M810.477383475987,473.66199225941955 L811.7526949707709,472.1321826970638 M811.7526949707709,472.1321826970638 L812.4064164789594,470.4768023682074 M812.4064164789594,470.4768023682074 L812.40577818193,468.7788630622682 M812.40577818193,468.7788630622682 L811.7508102246751,467.12350382557025 M811.7508102246751,467.12350382557025 L810.4743457874717,465.59371819001865 M810.4743457874717,465.59371819001865 L808.6404026274705,464.26622543760794 M808.6444158359658,474.9895140587675 L808.6504524227188,442.82383626980067 M808.6464390802465,432.10072634628705 L810.4804128182199,433.4281969765534 M810.4804128182199,433.4281969765534 L811.7568985422309,434.9579571189045 M811.7568985422309,434.9579571189045 L812.411877427509,436.61328876986477 M812.411877427509,436.61328876986477 L812.4125157459104,438.31119978058905 M812.4125157459104,438.31119978058905 L811.7587833513451,439.96655252354805 M811.7587833513451,439.96655252354805 L810.4834506080982,441.4963365926503 M810.4834506080982,441.4963365926503 L808.6504524227188,442.82383626980067 M595.0536298005804,308.80204148594606 L594.821048626297,306.550709559619 M594.821048626297,306.550709559619 L594.134597480167,304.681041330855 M594.134597480167,304.681041330855 L593.0287008167322,303.2867908009025 M593.0287008167322,303.2867908009025 L591.5588063985954,302.4378719522091 M591.5588063985954,302.4378719522091 L589.798619444393,302.17685925387883 M589.798619444393,302.17685925387883 L587.8364013818964,302.5168458929554 M587.8364013818964,302.5168458929554 L585.7705433772901,303.4407845106782 M585.7705433772901,303.4407845106782 L583.7043404516555,301.9792264631419 M583.7043404516555,301.9792264631419 L581.7417914551648,300.05334107798996 M581.7417914551648,300.05334107798996 L579.9813014924651,297.75970367972195 M579.9813014924651,297.75970367972195 L578.5111457124509,295.21331917369616 M578.5111457124509,295.21331917369616 L577.4050424398306,292.5418714437567 M577.4050424398306,292.5418714437567 L576.7184512697571,289.8793114640482 M576.7184512697571,289.8793114640482 L576.4858063343024,287.35914821730677 M799.3645399033093,426.7401544021487 L801.4303680718444,425.8159280853405 M801.4303680718444,425.8159280853405 L803.3924982779974,425.4757025270903 M803.3924982779974,425.4757025270903 L805.1525437609746,425.7365370658761 M805.1525437609746,425.7365370658761 L806.6222501874998,426.5853474474226 M806.6222501874998,426.5853474474226 L807.7279217664261,427.9795646406956 M807.7279217664261,427.9795646406956 L808.4141220217493,429.8492763338547 M808.4141220217493,429.8492763338547 L808.6464390802465,432.10072634628705 M799.3645399033093,426.7401544021487 L585.7705433772901,303.4407845106782 M19.209436665634087,351.67601599198997 L19.44186057632254,349.15478959350855 M19.44186057632254,349.15478959350855 L20.128520099293837,346.4910758545284 M20.128520099293837,346.4910758545284 L21.235016147371823,343.8184440997208 M21.235016147371823,343.8184440997208 L22.705857043728827,341.27089852016115 M22.705857043728827,341.27089852016115 L24.467248777244265,338.976202926823 M24.467248777244265,338.976202926823 L26.43090465871154,337.0494101464722 M26.43090465871154,337.0494101464722 L28.498342694541122,335.5871588031902 M28.498342694541122,335.5871588031902 L30.56486326406622,337.0494101464722 M30.56486326406622,337.0494101464722 L32.527880686793594,338.97620292682313 M32.527880686793594,338.97620292682313 L34.28895605755548,341.27090491310815 M34.28895605755548,341.27090491310815 L35.7597831046528,343.81844250147986 M35.7597831046528,343.81844250147986 L36.866603818387716,346.4910726580389 M36.866603818387716,346.4910726580389 L37.55391564936929,349.15479438825236 M37.55391564936929,349.15479438825236 L37.78725702635421,351.67602078674105 M567.2164971766156,24.647959111239118 L569.2829427968775,26.1093980900838 M569.2829427968775,26.1093980900838 L571.245738891089,28.035332538088255 M571.245738891089,28.035332538088255 L573.0064576565094,30.329173268613147 M573.0064576565094,30.329173268613147 L574.4768107062166,32.87588986633216 M574.4768107062166,32.87588986633216 L575.5830637982095,35.54778046729416 M575.5830637982095,35.54778046729416 L576.269742841542,38.210881160351505 M576.269742841542,38.210881160351505 L576.5024180006844,40.73163618419369 M37.78725702635421,351.67602078674105 L576.5024180006844,40.73163618419369 M260.7263859316799,791.4269272375873 L258.6592078488985,792.351927103686 M258.6592078488985,792.351927103686 L256.69562729524523,792.6928349577065 M256.69562729524523,792.6928349577065 L254.93411982926094,792.4325457886646 M254.93411982926094,792.4325457886646 L253.46297647627526,791.5841308632873 M253.46297647627526,791.5841308632873 L252.35600640623582,790.190108568413 M252.35600640623582,790.190108568413 L251.66872653522393,788.3203752912495 M251.66872653522393,788.3203752912495 L251.43556972393174,786.0687037067894 M808.6444158359658,474.9895140587675 L808.4111043115914,477.24088796336326 M808.4111043115914,477.24088796336326 L807.7237589067348,479.11049907045293 M807.7237589067348,479.11049907045293 L806.6168589511899,480.5046057675358 M806.6168589511899,480.5046057675358 L805.145917842305,481.3533074310168 M805.145917842305,481.3533074310168 L803.3846914222127,481.6140463541308 M803.3846914222127,481.6140463541308 L801.4214787751042,481.2737415137288 M801.4214787751042,481.2737415137288 L799.3547370080163,480.349467676901 M808.6444158359658,474.9895140587675 L270.01307201386555,786.0687037067894 M270.01307201386555,786.0687037067894 L269.7804265030375,788.3203752912495 M269.7804265030375,788.3203752912495 L269.0937136967239,790.1900957768503 M269.0937136967239,790.1900957768503 L267.9873812046387,791.5841180717282 M267.9873812046387,791.5841180717282 L266.5169139700476,792.4325457886646 M266.5169139700476,792.4325457886646 L264.7560440740514,792.6928349577065 M264.7560440740514,792.6928349577065 L262.79305272428417,792.351927103686 M262.79305272428417,792.351927103686 L260.7263859316799,791.4269272375873 M270.01307201386555,786.0687037067894 L267.7130445406983,787.1280495367364 M267.7130445406983,787.1280495367364 L265.0626093010112,787.8652413009979 M265.0626093010112,787.8652413009979 L262.19469657835975,788.2433097877115 M262.19469657835975,788.2433097877115 L259.25308599055563,788.243322579315 M259.25308599055563,788.243322579315 L256.38531878892866,787.8652540925916 M256.38531878892866,787.8652540925916 L253.73518944790317,787.1280495367364 M253.73518944790317,787.1280495367364 L251.43556972393174,786.0687037067894 M270.01307201386555,786.0687037067894 L270.01012921604956,753.8978436851712 M270.01012921604956,753.8978436851712 L267.7100633881346,754.9571718733089 M267.7100633881346,754.9571718733089 L265.05958395178874,755.6943513607746 M265.05958395178874,755.6943513607746 L262.1916234072479,756.0724135513458 M262.1916234072479,756.0724135513458 L259.24996376987207,756.0724263427364 M259.24996376987207,756.0724263427364 L256.3821487512088,755.6943641521552 M256.3821487512088,755.6943641521552 L253.73197522335664,754.9571718733089 M253.73197522335664,754.9571718733089 L251.43231715823558,753.8978436851712 M19.264053050228426,598.3432783568571 L21.56316241259026,599.4023004504024 M21.56316241259026,599.4023004504024 L24.21281990502291,600.139279716173 M24.21281990502291,600.139279716173 L27.080188505782587,600.5172390587743 M27.080188505782587,600.5172390587743 L30.021480443154246,600.5172310664655 M30.021480443154246,600.5172310664655 L32.88916255714781,600.1392765192518 M32.88916255714781,600.1392765192518 L35.53947219259004,599.4023052457767 M35.53947219259004,599.4023052457767 L37.839498786731895,598.3432831522211 M37.839498786731895,598.3432831522211 L37.78725702635421,351.67602078674105 M19.209436665634087,351.67601599198997 L21.508839878999936,352.734902763939 M21.508839878999936,352.734902763939 L24.158836054121934,353.4717878588461 M24.158836054121934,353.4717878588461 L27.026571189585297,353.8496989060367 M27.026571189585297,353.8496989060367 L29.968239132943893,353.84969091474886 M29.968239132943893,353.84969091474886 L32.83628786357298,353.47178466233345 M32.83628786357298,353.47178466233345 L35.48693634668166,352.7349075587006 M35.48693634668166,352.7349075587006 L37.78725702635421,351.67602078674105 M37.83950986059648,630.5169133262159 L38.07192450559819,627.9963151655595 M38.07192450559819,627.9963151655595 L38.75851048559497,625.3331548328997 M38.75851048559497,625.3331548328997 L39.864872393684266,622.6609611113272 M39.864872393684266,622.6609611113272 L41.3355252839126,620.1137315697715 M41.3355252839126,620.1137315697715 L43.09668458027227,617.8192232826816 M43.09668458027227,617.8192232826816 L45.0600752426821,615.8924734472314 M45.0600752426821,615.8924734472314 L47.127228575941274,614.4301030341028 M47.127228575941274,614.4301030341028 L260.72122318621933,737.8089769084681 M260.72122318621933,737.8089769084681 L258.6540400021348,739.2716696679356 M258.6540400021348,739.2716696679356 L256.69056146936737,741.1987600389939 M256.69056146936737,741.1987600389939 L254.92926068921201,743.4936099728027 M254.92926068921201,743.4936099728027 L253.45841979687452,746.0411651456056 M253.45841979687452,746.0411651456056 L252.35183279638068,748.7136521478374 M252.35183279638068,748.7136521478374 L251.66499592067922,751.3770587028782 M251.66499592067922,751.3770587028782 L251.43231715823558,753.8978436851712 M47.127228575941274,614.4301030341028 L45.06095070867815,612.9677326333438 M45.06095070867815,612.9677326333438 L43.09818043718326,611.0409890065059 M43.09818043718326,611.0409890065059 L41.33733396278717,608.7464905126344 M41.33733396278717,608.7464905126344 L39.86670430901387,606.1992852331814 M39.86670430901387,606.1992852331814 L38.76003356157389,603.5270982072543 M38.76003356157389,603.5270982072543 L38.07280976990006,600.863917476928 M38.07280976990006,600.863917476928 L37.839498786731895,598.3432831522211 M567.2164971766156,24.647959111239118 L567.2164971766156,24.647959111239118 M808.6444158359658,474.9895140587675 L808.6444158359658,474.9895140587675 M576.4858063343024,287.35914821730677 L37.839498786731895,598.3432831522211 M808.6504524227188,442.82383626980067 L270.01012921604956,753.8978436851712 M799.3645399033093,426.7401544021487 L799.3645399033093,426.7401544021487 M799.3645399033093,426.7401544021487 L801.4312402111028,428.20203451271675 M801.4312402111028,428.20203451271675 L803.3942135424601,430.12826635501784 M803.3942135424601,430.12826635501784 L805.1550121330296,432.4222549361796 M805.1550121330296,432.4222549361796 L806.62535687804,434.96897632861766 M806.62535687804,434.96897632861766 L807.7315218401999,437.64072387365405 M807.7315218401999,437.64072387365405 L808.4180319510896,440.3035223776923 M808.4180319510896,440.3035223776923 L808.6504524227188,442.82383626980067 M585.7705433772901,303.4407845106782 L47.127228575941274,614.4301030341028 M799.3645399033093,426.7401544021487 L260.72122318621933,737.8089769084681 M19.209436665634087,351.67601599198997 L19.209436665634087,351.67601599198997 M270.01307201386555,786.0687037067894 L270.01307201386555,786.0687037067894 M260.72122318621933,737.8089769084681 L262.7879986075101,739.2716696679356 M262.7879986075101,739.2716696679356 L264.7511933789968,741.1987600389939 M264.7511933789968,741.1987600389939 L266.5123486326298,743.4936099728027 M266.5123486326298,743.4936099728027 L267.9831673777068,746.041152354348 M267.9831673777068,746.041152354348 L269.08989990656335,748.7136393565495 M269.08989990656335,748.7136393565495 L269.77704269081187,751.3770587028782 M269.77704269081187,751.3770587028782 L270.01012921604956,753.8978436851712 M260.72122318621933,737.8089769084681 L260.72122318621933,737.8089769084681" stroke="black"  stroke-width="4"  fill="red"/></svg>