<svg viewBox="0 0 800 800" xmlns="http://www.w3.org/2000/svg"><path d="M286.2695746297519,-59.63695583279144 L286.25062087514834,465.65772851481927 M58.805563262408725,71.64566959457056 L286.2695746297519,-59.63695583279144 M58.82452017649803,596.962248973932 L58.805563262408725,71.64566959457056 M286.25062087514834,465.65772851481927 L58.82452017649803,596.962248973932 M196.23495420208974,167.44704135606432 L195.54654286696433,161.29648452604073 M195.54654286696433,161.29648452604073 L193.5212090602841,156.29814193737843 M193.5212090602841,156.29814193737843 L190.276649149717,152.74249809930203 M190.276649149717,152.74249809930203 L186.00141171763113,150.83618813140643 M186.00141171763113,150.83618813140643 L180.94395179228383,150.69006948243668 M180.94395179228383,150.69006948243668 L175.39818794984558,152.31256716499192 M175.39818794984558,152.31256716499192 L169.6864232122498,155.60946632533526 M169.6864232122498,155.60946632533526 L164.14061361723577,160.3891676737564 M164.14061361723577,160.3891676737564 L159.08307266835254,166.37382231538487 M159.08307266835254,166.37382231538487 L154.80773750365609,173.2156968093712 M154.80773750365609,173.2156968093712 L151.56308554112957,180.51709652743136 M151.56308554112957,180.51709652743136 L149.53768645120294,187.8536961784687 M149.53768645120294,187.8536961784687 L148.84925155715257,194.79910926978948 M148.84925155715257,194.79910926978948 L149.53778204176194,200.94968050456112 M149.53778204176194,200.94968050456112 L151.56325482326145,205.9479525818521 M151.56325482326145,205.9479525818521 L154.80794169653268,209.50345714587826 M154.80794169653268,209.50345714587826 L159.08326499372163,211.4095701078763 M159.08326499372163,211.4095701078763 L164.14075001569887,211.55553699394886 M164.14075001569887,211.55553699394886 L169.68647243719045,209.9328888399299 M169.68647243719045,209.9328888399299 L175.39813872511098,206.63593281437508 M175.39813872511098,206.63593281437508 L180.94381539550034,201.856281234213 M180.94381539550034,201.856281234213 L186.0012193960559,195.87171374916971 M186.0012193960559,195.87171374916971 L190.27644496214782,189.03002255244675 M190.27644496214782,189.03002255244675 L193.5210397833573,181.72880243775165 M193.5210397833573,181.72880243775165 L195.54644727962824,174.39235842646232 M195.54644727962824,174.39235842646232 L196.23495420208974,167.44704135606432 M741.1786388704087,728.2886562556408 L286.25062087514834,465.65772851481927 M741.1786388704087,728.2886562556408 L741.1944367375913,640.7444063245496 M741.1944367375913,640.7444063245496 L362.0666911058564,421.8852999582204 M362.09301795892225,-15.878512221551205 L362.0666911058564,421.8852999582204 M362.09301795892225,-15.878512221551205 L286.2695746297519,-59.63695583279144 M134.62900676713775,115.41140820480359 L58.805563262408725,71.64566959457056 M134.62900676713775,115.41140820480359 L362.09301795892225,-15.878512221551205 M58.82452017649803,596.962248973932 L513.7525444911249,859.6369558327914 M134.63427301549558,553.1934677651377 L134.62900676713775,115.41140820480359 M134.63427301549558,553.1934677651377 L513.762024791638,772.0890582501653 M513.7525444911249,859.6369558327914 L513.762024791638,772.0890582501653 M513.7525444911249,859.6369558327914 L741.1786388704087,728.2886562556408 M499.5008182981146,692.7189261716578 L493.14174381658154,689.8425321219919 M493.14174381658154,689.8425321219919 L485.77549318122726,687.9283644611332 M485.77549318122726,687.9283644611332 L477.83015367267467,687.0876559439405 M477.83015367267467,687.0876559439405 L469.76746250841825,687.3692642927233 M469.76746250841825,687.3692642927233 L462.0559730354306,688.7568208918839 M462.0559730354306,688.7568208918839 L455.14383501057716,691.1696919795347 M455.14383501057716,691.1696919795347 L449.4327541933262,694.4676620700357 M449.4327541933262,694.4676620700357 L445.25463845979607,698.4590744923748 M445.25463845979607,698.4590744923748 L442.8523069802576,702.9119684437028 M442.8523069802576,702.9119684437028 L442.3653875792363,707.5675635094589 M442.3653875792363,707.5675635094589 L443.82220141831885,712.1552970510508 M443.82220141831885,712.1552970510508 L447.1380956215294,716.4085439731487 M447.1380956215294,716.4085439731487 L452.1203813163228,720.0801144814862 M452.1203813163228,720.0801144814862 L458.4795029402088,722.9566189200474 M458.4795029402088,722.9566189200474 L465.8458841603665,724.8708716808877 M465.8458841603665,724.8708716808877 L473.7914077806545,725.7116205139308 M473.7914077806545,725.7116205139308 L481.8543124842996,725.4300088986039 M481.8543124842996,725.4300088986039 L489.56594591126793,724.0423772770052 M489.56594591126793,724.0423772770052 L496.47819349901056,721.6294159573821 M496.47819349901056,721.6294159573821 L502.1892742943812,718.3313321743557 M502.1892742943812,718.3313321743557 L506.36728042627453,714.3398086446925 M506.36728042627453,714.3398086446925 L508.7694679269738,709.8868605462352 M508.7694679269738,709.8868605462352 L509.25617378333163,705.2312413388909 M509.25617378333163,705.2312413388909 L507.7991758480314,700.6435481132011 M507.7991758480314,700.6435481132011 L504.48315109277235,696.3903862911413 M504.48315109277235,696.3903862911413 L499.5008182981146,692.7189261716578 M226.56214134545388,184.95225566100385 L225.8737930198949,178.80167126902728 M225.8737930198949,178.80167126902728 L223.84851856148452,173.80332038394553 M223.84851856148452,173.80332038394553 L220.60401088871083,170.24768799728528 M220.60401088871083,170.24768799728528 L216.32881554808273,168.34140856335574 M216.32881554808273,168.34140856335574 L211.2713851209378,168.19533775699284 M211.2713851209378,168.19533775699284 L205.72563646975266,169.8178978101746 M205.72563646975266,169.8178978101746 L200.01387173286224,173.11487024493914 M200.01387173286224,173.11487024493914 L194.4680469479648,177.89465151312493 M194.4680469479648,177.89465151312493 L189.41047650212823,183.87938807469092 M189.41047650212823,183.87938807469092 L185.1350992470298,190.7213417280933 M185.1350992470298,190.7213417280933 L181.89039504751133,198.02281324394767 M181.89039504751133,198.02281324394767 L179.86493660981495,205.3594731583683 M179.86493660981495,205.3594731583683 L179.17643870636812,212.3049314761459 M179.17643870636812,212.3049314761459 L179.8649061819347,218.45553027196428 M179.8649061819347,218.45553027196428 L181.89031961661527,223.45381064316223 M181.89031961661527,223.45381064316223 L185.13495425413896,227.00930375222904 M185.13495425413896,227.00930375222904 L189.41023546224324,228.91538617638292 M189.41023546224324,228.91538617638292 L194.46769098761786,229.06130521684514 M194.46769098761786,229.06130521684514 L200.01339821907413,227.43859469032162 M200.01339821907413,227.43859469032162 L205.72506450628936,224.1415653903447 M205.72506450628936,224.1415653903447 L211.27075636534437,219.36183389229456 M211.27075636534437,219.36183389229456 L216.32818986125352,213.37718449031613 M216.32818986125352,213.37718449031613 L220.60345751537432,206.5354141380551 M220.60345751537432,206.5354141380551 L223.84810457152992,199.23412222910974 M223.84810457152992,199.23412222910974 L225.87357141411968,191.89761795695068 M225.87357141411968,191.89761795695068 L226.56214134545388,184.95225566100385 M226.56214134545388,184.95225566100385 L196.23495420208974,167.44704135606432 M513.762024791638,772.0890582501653 L741.1944367375913,640.7444063245496 M362.0666911058564,421.8852999582204 L134.63427301549558,553.1934677651377 M426.5413194497502,647.3111178895521 L416.17793215812674,639.6743398635184 M416.17793215812674,639.6743398635184 L409.28081527885865,630.8277365942417 M409.28081527885865,630.8277365942417 L406.25076378968913,621.2854646262413 M406.25076378968913,621.2854646262413 L407.2637971046996,611.6021075818323 M407.2637971046996,611.6021075818323 L412.2609570369815,602.3404122335904 M412.2609570369815,602.3404122335904 L420.95179104046554,594.0386236597788 M420.95179104046554,594.0386236597788 L432.83116914475,587.1791640921098 M432.83116914475,587.1791640921098 L447.2087031539485,582.1606394459768 M447.2087031539485,582.1606394459768 L463.2488747508763,579.2746803930852 M463.2488747508763,579.2746803930852 L480.01952505449117,578.6889705497833 M480.01952505449117,578.6889705497833 L496.54609386927893,580.4375511471567 M496.54609386927893,580.4375511471567 L511.86817383571656,584.4188206071167 M511.86817383571656,584.4188206071167 L525.0953623939822,590.4014289273352 M525.0953623939822,590.4014289273352 L535.4589534697878,598.0377293670753 M535.4589534697878,598.0377293670753 L542.356635200583,606.8839644595619 M542.356635200583,606.8839644595619 L545.3874832085045,616.4260620048133 M545.3874832085045,616.4260620048133 L544.3752775266152,626.1094679014911 M544.3752775266152,626.1094679014911 L539.378818758801,635.3714426690749 M539.378818758801,635.3714426690749 L530.6883988216464,643.6736772176532 M530.6883988216464,643.6736772176532 L518.8090208120326,650.533628664654 M518.8090208120326,650.533628664654 L504.4310729041572,655.5525784108712 M504.4310729041572,655.5525784108712 L488.3902002503188,658.4388168825751 M488.3902002503188,658.4388168825751 L471.61872233640474,659.0245964533128 M471.61872233640474,659.0245964533128 L455.09135693572387,657.2758414333476 M455.09135693572387,657.2758414333476 L439.7687119760359,653.2942037961743 M439.7687119760359,653.2942037961743 L426.5413194497502,647.3111178895521 M297.6417781152511,196.44026459292337 L296.20927462231975,210.88665006513756 M296.20927462231975,210.88665006513756 L291.9961151307374,226.1465952848692 M291.9961151307374,226.1465952848692 L285.2471459412335,241.3333140145535 M285.2471459412335,241.3333140145535 L276.35458118587985,255.56426829381843 M276.35458118587985,255.56426829381843 L265.8351815333302,268.0124848513737 M265.8351815333302,268.0124848513737 L254.30024469566155,277.95453222404785 M254.30024469566155,277.95453222404785 L242.4200894016858,284.8126456596841 M242.4200894016858,284.8126456596841 L230.88511259817545,288.1882343998693 M230.88511259817545,288.1882343998693 L220.36566917834483,287.8850541738781 M220.36566917834483,287.8850541738781 L211.47311932646642,283.9206882373527 M211.47311932646642,283.9206882373527 L204.72429513694266,276.52545068895677 M204.72429513694266,276.52545068895677 L200.51147040818063,266.1290706240019 M200.51147040818063,266.1290706240019 L199.07952028038437,253.33572494718234 M199.07952028038437,253.33572494718234 L200.51171215536777,238.88892404027928 M200.51171215536777,238.88892404027928 L204.72483529275536,223.6283054334333 M204.72483529275536,223.6283054334333 L211.47405172081045,208.4408096288332 M211.47405172081045,208.4408096288332 L220.3670906670443,194.20917348174262 M220.3670906670443,194.20917348174262 L230.88708283183905,181.76048950049966 M230.88708283183905,181.76048950049966 L242.42259476631824,171.8182962310987 M242.42259476631824,171.8182962310987 L254.3031759929557,164.9604288171153 M254.3031759929557,164.9604288171153 L265.83833198877863,161.58542165627392 M265.83833198877863,161.58542165627392 L276.35766681062375,161.88934881817715 M276.35766681062375,161.88934881817715 L285.2498451532474,165.85445593214507 M285.2498451532474,165.85445593214507 L291.9981200288636,173.25029607464 M291.9981200288636,173.25029607464 L296.2103434814087,183.64698122697183 M296.2103434814087,183.64698122697183 L297.6417781152511,196.44026459292337 M499.5044515830283,657.7022045277098 L493.1453064305847,654.8258424325539 M493.1453064305847,654.8258424325539 L485.77897393462706,652.9116960366802 M485.77897393462706,652.9116960366802 L477.8335461329567,652.0709968591526 M477.8335461329567,652.0709968591526 L469.7707653739791,652.3526020794686 M469.7707653739791,652.3526020794686 L462.0591902111679,653.7401432638871 M462.0591902111679,653.7401432638871 L455.1469753810602,656.1529875463642 M455.1469753810602,656.1529875463642 L449.435831106651,659.4509209990433 M449.435831106651,659.4509209990433 L445.2576689519651,663.4422890801739 M445.2576689519651,663.4422890801739 L442.8553107852139,667.8951335638893 M442.8553107852139,667.8951335638893 L442.36838598218606,672.5506769105067 M442.36838598218606,672.5506769105067 L443.8252160188566,677.1383594871346 M443.8252160188566,677.1383594871346 L447.1411470782108,681.3915591603331 M447.1411470782108,681.3915591603331 L452.1234881460922,685.0630888817623 M452.1234881460922,685.0630888817623 L458.48268044193685,687.9395613658138 M458.48268044193685,687.9395613658138 L465.8491435256003,689.8537928616696 M465.8491435256003,689.8537928616696 L473.794755443098,690.6945323550477 M473.794755443098,690.6945323550477 L481.8577497460094,690.4129238680715 M481.8577497460094,690.4129238680715 L489.5694688662013,689.0253076613307 M489.5694688662013,689.0253076613307 L496.48179326143213,686.6123731467651 M496.48179326143213,686.6123731467651 L502.1929375139604,683.31432600156 M502.1929375139604,683.31432600156 L506.3709900647742,679.3228468132213 M506.3709900647742,679.3228468132213 L508.7732042492851,674.86994818226 M508.7732042492851,674.86994818226 L509.25991550310425,670.2143806941704 M509.25991550310425,670.2143806941704 L507.8029013661246,665.6267384334446 M507.8029013661246,665.6267384334446 L504.48683975182064,661.3736238602846 M504.48683975182064,661.3736238602846 L499.5044515830283,657.7022045277098 M499.5044515830283,657.7022045277098 L499.5008182981146,692.7189261716578 M226.56214134545388,184.95225566100385 L251.20293186669755,188.23452738900582 M251.20293186669755,188.23452738900582 L275.84382281038614,191.51681149048764 M275.84382281038614,191.51681149048764 L274.6049963870103,180.44573626255894 M274.6049963870103,180.44573626255894 L270.9597097084579,171.44861365639133 M270.9597097084579,171.44861365639133 L265.1197790861295,165.04841369888157 M265.1197790861295,165.04841369888157 L257.42456574638055,161.61706352131216 M257.42456574638055,161.61706352131216 L248.32126158800918,161.3540481089027 M248.32126158800918,161.3540481089027 L238.33891188001445,164.27471671606835 M238.33891188001445,164.27471671606835 L228.05766447197317,170.20935805112867 M228.05766447197317,170.20935805112867 L218.07505714788715,178.81308705153353 M218.07505714788715,178.81308705153353 L208.97127807610752,189.5858885388771 M208.97127807610752,189.5858885388771 L201.27544501404594,201.90163911660062 M201.27544501404594,201.90163911660062 L195.43484002054453,215.04453101144583 M195.43484002054453,215.04453101144583 L191.78891450647797,228.25076419038703 M191.78891450647797,228.25076419038703 L190.54955807723036,240.75272222508525 M190.54955807723036,240.75272222508525 L191.78877054781617,251.82384411857478 M191.78877054781617,251.82384411857478 L195.43450751482203,260.8207382515142 M195.43450751482203,260.8207382515142 L201.27484950909536,267.22050781327687 M201.27484950909536,267.22050781327687 L208.97034106573335,270.6512873023971 M208.97034106573335,270.6512873023971 L218.0737265494809,270.91372247179106 M218.0737265494809,270.91372247179106 L228.05594206001985,267.99263396170863 M228.05594206001985,267.99263396170863 L238.3368704911545,262.0578083833813 M238.3368704911545,262.0578083833813 L248.31904713270438,253.45417300730324 M248.31904713270438,253.45417300730324 L257.4223824800253,242.68174243875953 M257.4223824800253,242.68174243875953 L265.1178604284703,230.36651813340399 M265.1178604284703,230.36651813340399 L270.9582802709341,217.22418730106645 M270.9582802709341,217.22418730106645 L274.60423301282646,204.01845841205832 M274.60423301282646,204.01845841205832 L275.84382281038614,191.51681149048764 M426.5399081305601,664.8203924539307 L416.17657842858534,657.1835720045684 M416.17657842858534,657.1835720045684 L409.27949987963177,648.336919590707 M409.27949987963177,648.336919590707 L406.249465234317,638.7945946129294 M406.249465234317,638.7945946129294 L407.2624929286203,629.111183774323 M407.2624929286203,629.111183774323 L412.25962510315867,619.8494369737326 M412.25962510315867,619.8494369737326 L420.9504108255737,611.547602279717 M420.9504108255737,611.547602279717 L432.8297229318515,604.6881046042695 M432.8297229318515,604.6881046042695 L447.2071770616809,599.6695520774756 M447.2071770616809,599.6695520774756 L463.24725953970017,596.7835769914159 M463.24725953970017,596.7835769914159 L480.0178166635925,596.1978638941505 M480.0178166635925,596.1978638941505 L496.5442936522139,597.9464542059125 M496.5442936522139,597.9464542059125 L511.86628848195096,601.927745784074 M511.86628848195096,601.927745784074 L525.0934035402098,607.9103873408524 M525.0934035402098,607.9103873408524 L535.4569370241029,615.5467302039217 M535.4569370241029,615.5467302039217 L542.354580418307,624.3930144409935 M542.354580418307,624.3930144409935 L545.3854115735224,633.9351649960222 M545.3854115735224,633.9351649960222 L544.3732115030427,643.6186246868394 M544.3732115030427,643.6186246868394 L539.3767804851801,652.8806509067712 M539.3767804851801,652.8806509067712 L530.6864088245931,661.1829315756112 M530.6864088245931,661.1829315756112 L518.8070968129842,668.0429211303899 M518.8070968129842,668.0429211303899 L504.4292287889766,673.0618987572097 M504.4292287889766,673.0618987572097 L488.3884452618371,675.9481532620815 M488.3884452618371,675.9481532620815 L471.61706053694274,676.5339360868404 M471.61706053694274,676.5339360868404 L455.08978697128055,674.7851713524868 M455.08978697128055,674.7851713524868 L439.7672271545721,670.8035115971123 M439.7672271545721,670.8035115971123 L426.5399081305601,664.8203924539307 M426.5399081305601,664.8203924539307 L426.5413194497502,647.3111178895521 M282.47759590845374,187.6874818032939 L281.0451579492309,202.13382024091493 M281.0451579492309,202.13382024091493 L276.8320601809233,217.39370278920182 M276.8320601809233,217.39370278920182 L270.08314531740984,232.5803468522878 M270.08314531740984,232.5803468522878 L261.1906243339027,246.8112188085641 M261.1906243339027,246.8112188085641 L250.67125535567624,259.25935017029656 M250.67125535567624,259.25935017029656 L239.13633431233148,269.20131442507727 M239.13633431233148,269.20131442507727 L227.25617901505484,276.05935165087396 M227.25617901505484,276.05935165087396 L215.72118641081062,279.4348755183249 M215.72118641081062,279.4348755183249 L205.201712310811,279.13164552724845 M205.201712310811,279.13164552724845 L196.30911868214457,275.1672478259492 M196.30911868214457,275.1672478259492 L189.5602401628799,267.77199835987074 M189.5602401628799,267.77199835987074 L185.34735370850166,257.3756269176496 M185.34735370850166,257.3756269176496 L183.91533804620082,244.58230990326444 M183.91533804620082,244.58230990326444 L185.3474643863426,230.13555603291815 M185.3474643863426,230.13555603291815 L189.56052579731625,214.8750001029547 M189.56052579731625,214.8750001029547 L196.30968789495483,199.68757897261932 M196.30968789495483,199.68757897261932 L205.20268306474384,185.456025156598 M205.20268306474384,185.456025156598 L215.72264455131995,173.00742637792422 M215.72264455131995,173.00742637792422 L227.25814068917532,163.06531623028349 M227.25814068917532,163.06531623028349 L239.13872191911406,156.207525026138 M239.13872191911406,156.207525026138 L250.6738937179714,152.8325827341613 M250.6738937179714,152.8325827341613 L261.1932592238812,153.13655965440154 M261.1932592238812,153.13655965440154 L270.0854813478915,157.10169852506226 M270.0854813478915,157.10169852506226 L276.8338105576744,164.49755057757454 M276.8338105576744,164.49755057757454 L281.04609573897426,174.8942271017372 M281.04609573897426,174.8942271017372 L282.47759590845374,187.6874818032939 M282.47759590845374,187.6874818032939 L297.6417781152511,196.44026459292337 M499.5044515830283,657.7022045277098 L508.9823161450772,634.721518102981 M508.9823161450772,634.721518102981 L518.4602202026003,611.740738523124 M518.4602202026003,611.740738523124 L507.0136814805968,606.5634313172973 M507.0136814805968,606.5634313172973 L493.7542084162794,603.1180545682696 M493.7542084162794,603.1180545682696 L479.45240612930377,601.604841104441 M479.45240612930377,601.604841104441 L464.93937005333964,602.1117083493796 M464.93937005333964,602.1117083493796 L451.0585038468165,604.6092127350565 M451.0585038468165,604.6092127350565 L438.61644872545946,608.9522136036633 M438.61644872545946,608.9522136036633 L428.33627479203096,614.8883460103519 M428.33627479203096,614.8883460103519 L420.8154301803273,622.0726539734885 M420.8154301803273,622.0726539734885 L416.491012961995,630.0876346475534 M416.491012961995,630.0876346475534 L415.61440937603675,638.4675155747707 M415.61440937603675,638.4675155747707 L418.23660139775313,646.7252848894818 M418.23660139775313,646.7252848894818 L424.2052717885348,654.3810327848945 M424.2052717885348,654.3810327848945 L433.17353836139796,660.9897832118531 M433.17353836139796,660.9897832118531 L444.6202298311174,666.1674480771302 M444.6202298311174,666.1674480771302 L457.88012600941465,669.6131005511135 M457.88012600941465,669.6131005511135 L472.18250676629395,671.1264342006934 M472.18250676629395,671.1264342006934 L486.69617616430605,670.6195225545257 M486.69617616430605,670.6195225545257 L500.5775854581623,668.1218193515953 M500.5775854581623,668.1218193515953 L513.0199370018328,663.7784923131346 M513.0199370018328,663.7784923131346 L523.3001108643649,657.841991542708 M523.3001108643649,657.841991542708 L530.8206589282036,650.6573574097074 M530.8206589282036,650.6573574097074 L535.1445329786555,642.6421570439765 M535.1445329786555,642.6421570439765 L536.0205032254747,634.2622317154282 M536.0205032254747,634.2622317154282 L533.3977327841353,626.0046034613983 M533.3977327841353,626.0046034613983 L527.4286393855072,618.3491312906112 M527.4286393855072,618.3491312906112 L518.4602202026003,611.740738523124" stroke="black"  stroke-width="4"  fill="red"/></svg>